# xmcd
#
# Track frame offsets:
#	150
#	21892
#	37445
#	54910
#	77137
#	93615
#	108570
#	127302
#	145302
#	157847
#	175495
#	196992
#	216835
#	230990
#	250127
#
# Disc length: 3529 seconds
#
# Revision: 1
# Processed by: cddbd v1.4PL0 Copyright (c) Steve Scherf et al.
# Submitted via: CDmax 1.8
#
DISCID=e20dc70f
DTITLE=Ed Motta - Série Sem Limite - CD 2
DYEAR=1900
DGENRE=Blues
TTITLE0=Fora da Lei
TTITLE1=Manuel
TTITLE2=Baixo Rio
TTITLE3=Medo de Amar
TTITLE4=Por Você Ser Mais
TTITLE5=Dois Mundos (Two Worlds)
TTITLE6=Outono no Rio
TTITLE7=Como Dois Cristais
TTITLE8=A Flor do Querer
TTITLE9=Tardes de Verão
TTITLE10=Vamos Dançar
TTITLE11=Conversa Mole
TTITLE12=Falso Milagre do Amor
TTITLE13=Daqui pro Méier
TTITLE14=Vendaval (Nado and G-Vô Remix(
EXTD=
EXTT0=
EXTT1=
EXTT2=
EXTT3=
EXTT4=
EXTT5=
EXTT6=
EXTT7=
EXTT8=
EXTT9=
EXTT10=
EXTT11=
EXTT12=
EXTT13=
EXTT14=
PLAYORDER=
